<?xml version="1.0" encoding="utf-8"?>
<!-- Generator: Adobe Illustrator 28.0.0, SVG Export Plug-In . SVG Version: 6.00 Build 0)  -->
<svg version="1.1" id="Layer_1" xmlns="http://www.w3.org/2000/svg" xmlns:xlink="http://www.w3.org/1999/xlink" x="0px" y="0px"
	 viewBox="0 0 144 144" style="enable-background:new 0 0 144 144;" xml:space="preserve">
<style type="text/css">
	.st0{fill:#FFFFFF;stroke:#BBD6EB;stroke-miterlimit:10;}
	.st1{fill:#FFFFFF;stroke:#BBD6EB;stroke-linecap:round;stroke-linejoin:round;stroke-miterlimit:10;}
	.st2{fill:#FFFFFF;}
	.st3{fill:#BBD6EB;}
	.st4{fill:#EEEFF2;}
	.st5{fill:#5E616E;stroke:#5E616E;stroke-width:1.5;stroke-linecap:round;stroke-linejoin:round;stroke-miterlimit:10;}
	.st6{fill:#F3F5F7;}
	.st7{fill:url(#SVGID_1_);stroke:url(#SVGID_00000094609187903788932600000003545639467833409428_);stroke-linecap:round;stroke-linejoin:round;stroke-miterlimit:10;}
	.st8{fill:url(#SVGID_00000161589915407589535500000009372234131896836539_);stroke:url(#SVGID_00000067934452502483355280000008339464748571244981_);stroke-miterlimit:10;}
	.st9{clip-path:url(#SVGID_00000162331202596614018110000016194356013507311530_);}
	.st10{fill:url(#SVGID_00000037655740272919924040000017535965237825787818_);}
	.st11{fill:#FFFFFF;stroke:#FFFFFF;stroke-miterlimit:10;}
	.st12{fill:url(#SVGID_00000110466472750432826220000004538896309817856650_);}
	.st13{fill:url(#SVGID_00000072251738502527140120000007480513520010799289_);}
	.st14{fill:#FFFFFF;stroke:url(#SVGID_00000109737291097771010450000016905642024503382463_);stroke-miterlimit:10;}
	.st15{fill:none;stroke:#FFFFFF;stroke-linecap:round;stroke-miterlimit:10;}
	.st16{fill:none;stroke:#FFFFFF;stroke-linecap:round;stroke-miterlimit:10;stroke-dasharray:5.6708,0.5671,1.7012,5.6708;}
	.st17{fill:none;stroke:#FFFFFF;stroke-linecap:round;stroke-miterlimit:10;stroke-dasharray:0.5671,1.7012,5.6708,0.5671,1.7012,5.6708;}
	.st18{fill:url(#SVGID_00000071560644066883387500000008702215066501077438_);stroke:url(#SVGID_00000041260937465794957220000003204765592288801447_);stroke-linecap:round;stroke-linejoin:round;stroke-miterlimit:10;}
	.st19{opacity:0.25;fill:none;stroke:#FFFFFF;stroke-linecap:round;stroke-miterlimit:10;}
	.st20{fill:#838795;}
	.st21{fill:url(#SVGID_00000044171222418013926150000001626571882860076948_);stroke:url(#SVGID_00000119091168009985137720000015280234206461506194_);stroke-linecap:round;stroke-linejoin:round;stroke-miterlimit:10;}
	.st22{fill:url(#SVGID_00000145049749931436758180000006214419598200721338_);stroke:url(#SVGID_00000034770130942227623730000006943851382756295815_);stroke-linecap:round;stroke-linejoin:round;stroke-miterlimit:10;}
	.st23{fill:url(#SVGID_00000034086188455595214650000000106235625568093359_);stroke:url(#SVGID_00000119809059463002379890000001328156446606476436_);stroke-linecap:round;stroke-linejoin:round;stroke-miterlimit:10;}
	.st24{fill:url(#SVGID_00000084525421725677028100000002342331043522091695_);stroke:url(#SVGID_00000170259873083608309310000002663339479637381251_);stroke-linecap:round;stroke-linejoin:round;stroke-miterlimit:10;}
	.st25{fill:url(#SVGID_00000090257117363107863130000001530954146672511645_);stroke:url(#SVGID_00000005983905713641276000000006361808052854576564_);stroke-linecap:round;stroke-linejoin:round;stroke-miterlimit:10;}
	.st26{fill:url(#SVGID_00000035529088551174812540000016129695222616890014_);stroke:url(#SVGID_00000090991212463957472540000015583168092279454350_);stroke-linecap:round;stroke-linejoin:round;stroke-miterlimit:10;}
	.st27{fill:url(#SVGID_00000181081539637647825220000010251441254353580164_);stroke:url(#SVGID_00000169559947521487949140000014229010861957120905_);stroke-linecap:round;stroke-linejoin:round;stroke-miterlimit:10;}
	.st28{fill:url(#SVGID_00000145037676760478490520000016224395349366602409_);stroke:url(#SVGID_00000149355959681865523270000006600740656262230688_);stroke-linecap:round;stroke-linejoin:round;stroke-miterlimit:10;}
	.st29{fill:url(#SVGID_00000159471051151717654030000009358683532371293109_);}
	.st30{fill:url(#SVGID_00000145749459581369053590000010997582527071904702_);}
	.st31{fill:url(#SVGID_00000135684608842164379260000005278990163368478358_);}
	.st32{fill:url(#SVGID_00000105399242326203901220000015629138222770619280_);}
	.st33{fill:url(#SVGID_00000083780951955360727220000009574561854206514859_);}
	.st34{fill:url(#SVGID_00000173121002280365140170000005472776760760630681_);}
	.st35{fill:url(#SVGID_00000030471428930957756860000011347861550533136280_);}
	.st36{fill:url(#SVGID_00000005958223121467814920000004524103582282804151_);}
	.st37{fill:url(#SVGID_00000016054360315145193850000009377640636026127291_);}
	.st38{fill:url(#SVGID_00000076568430624743085750000011985954460562833283_);}
	.st39{fill:url(#SVGID_00000121962263570211620080000012551758957791307142_);}
	.st40{fill:url(#SVGID_00000102510317207207755260000001757161550764590240_);}
	.st41{fill:url(#SVGID_00000066489273327868503790000000367217513764259223_);}
	.st42{fill:#FFFFFF;stroke:url(#SVGID_00000029749451120302070210000013010458254936366480_);stroke-linecap:round;stroke-linejoin:round;stroke-miterlimit:10;}
	.st43{fill:#FFFFFF;stroke:url(#SVGID_00000016052460888614745100000012076935114936558769_);stroke-linecap:round;stroke-linejoin:round;stroke-miterlimit:10;}
	.st44{fill:url(#SVGID_00000062908384524755920690000016121043276677890472_);stroke:url(#SVGID_00000182508529787751778560000002519442964791851401_);stroke-linecap:round;stroke-linejoin:round;stroke-miterlimit:10;}
	.st45{fill:#D7DAE0;stroke:#5E616E;stroke-width:1.5;stroke-linecap:round;stroke-linejoin:round;stroke-miterlimit:10;}
	.st46{fill:#5E616E;stroke:#5E616E;stroke-width:1.5;stroke-linejoin:round;stroke-miterlimit:10;}
	.st47{fill:#FFFFFF;stroke:#5E616E;stroke-width:1.5;stroke-linecap:round;stroke-linejoin:round;stroke-miterlimit:10;}
	.st48{fill:none;stroke:#D7DAE0;stroke-width:8;stroke-miterlimit:10;stroke-dasharray:2.0076,4.0153;}
	.st49{fill:#838795;stroke:#5E616E;stroke-width:1.5;stroke-linecap:round;stroke-linejoin:round;stroke-miterlimit:10;}
	.st50{fill:#838795;stroke:#5E616E;stroke-width:1.5;stroke-miterlimit:10;}
	.st51{fill:#D7DAE0;}
	.st52{fill:none;stroke:#5E616E;stroke-width:1.5;stroke-linecap:round;stroke-linejoin:round;stroke-miterlimit:10;}
	.st53{fill:none;stroke:#D7DAE0;stroke-width:8;stroke-miterlimit:10;stroke-dasharray:2.0038,4.0077;}
	.st54{clip-path:url(#SVGID_00000136405785613528362800000007147594551438276777_);}
	.st55{fill:none;stroke:#FFFFFF;stroke-width:1.5;stroke-linecap:round;stroke-miterlimit:10;}
	.st56{fill:none;stroke:#FFFFFF;stroke-width:1.5;stroke-linecap:round;stroke-miterlimit:10;stroke-dasharray:6.6455,0.6645,1.9936,6.6455;}
	.st57{fill:none;stroke:#FFFFFF;stroke-width:1.5;stroke-linecap:round;stroke-miterlimit:10;stroke-dasharray:0.6645,1.9936,6.6455,0.6645,1.9936,6.6455;}
	.st58{fill:none;stroke:#5E616E;stroke-width:1.5;stroke-linecap:round;stroke-linejoin:round;stroke-miterlimit:10;stroke-dasharray:1,3,10,5;}
	.st59{fill:#FFFFFF;stroke:#5E616E;stroke-width:1.5;stroke-miterlimit:10;}
	.st60{fill:none;stroke:#D7DAE0;stroke-linecap:round;stroke-linejoin:round;}
	.st61{fill:none;stroke:#D7DAE0;stroke-linecap:round;stroke-linejoin:round;stroke-dasharray:7.0238,0.7024,2.1072,7.0238;}
	.st62{fill:none;stroke:#D7DAE0;stroke-linecap:round;stroke-linejoin:round;stroke-dasharray:0.7024,2.1072,7.0238,0.7024,2.1072,7.0238;}
	.st63{fill:none;stroke:#D7DAE0;stroke-linecap:round;stroke-miterlimit:10;}
	.st64{fill:none;stroke:#D7DAE0;stroke-linecap:round;stroke-miterlimit:10;stroke-dasharray:5.7263,0.5726,1.7179,5.7263;}
	.st65{fill:none;stroke:#5E616E;stroke-width:1.5;stroke-miterlimit:10;}
	.st66{fill:none;stroke:#D7DAE0;stroke-linecap:round;stroke-linejoin:round;stroke-miterlimit:10;stroke-dasharray:1,3,10,5;}
	.st67{fill:none;stroke:#5E616E;stroke-linecap:round;stroke-linejoin:round;stroke-miterlimit:10;}
	.st68{fill:none;stroke:#838795;stroke-width:1.5;stroke-linecap:round;stroke-linejoin:round;stroke-miterlimit:10;stroke-dasharray:1,3,10,5;}
	.st69{fill:#5E616E;}
	.st70{clip-path:url(#SVGID_00000079469741068815528770000010706338362003342259_);}
	.st71{fill:#FFFFFF;stroke:#D7DAE0;stroke-width:4;stroke-linecap:round;stroke-linejoin:round;stroke-miterlimit:10;}
	.st72{fill:none;stroke:#D7DAE0;stroke-width:4;stroke-linecap:round;stroke-linejoin:round;stroke-miterlimit:10;}
	.st73{fill:#FFFFFF;stroke:#1A74CC;stroke-miterlimit:10;}
	.st74{fill:#E5E5E5;}
	.st75{fill:#BBD6EB;stroke:#BBD6EB;stroke-linecap:round;stroke-linejoin:round;stroke-miterlimit:10;}
	.st76{fill:#FFFFFF;stroke:#EEEFF2;stroke-width:2;stroke-linecap:round;stroke-linejoin:round;stroke-miterlimit:10;stroke-dasharray:8,5;}
</style>
<g>
	<path class="st2" d="M63.6,17.8c-2-0.5-4.1,0.8-4.6,2.8L43.4,84.3l-3.2,13.1l-4.9,20c-0.5,2,0.8,4.1,2.8,4.6l72.9,17.8
		c2,0.5,4.1-0.8,4.6-2.8l4.9-20l3.2-13.1l15.6-63.8c0.5-2-0.8-4.1-2.8-4.6L63.6,17.8z"/>
	<path class="st4" d="M62.7,17.7c-1.7,0-3.3,1.2-3.7,2.9l0,0c0,0,0,0,0,0l0,0c0,0,0,0,0,0l0,0c0,0,0,0,0,0l0,0c0,0,0,0,0,0l0,0
		c0,0,0,0,0,0l0,0c0,0,0,0,0,0l0,0c0,0,0,0,0,0l0,0c0,0,0,0,0,0l0,0c0,0,0,0,0,0l0,0c0,0,0,0,0,0l0,0c0,0,0,0,0,0l0,0c0,0,0,0,0,0
		l0,0c0,0,0,0,0,0l0,0c0,0,0,0,0,0l0,0c0,0,0,0,0,0l-0.6,2.6c-0.1,0.5,0.2,1.1,0.7,1.2c0.1,0,0.2,0,0.2,0c0.5,0,0.9-0.3,1-0.8L61,21
		c0.2-0.8,0.9-1.4,1.8-1.4c0.2,0,0.3,0,0.5-0.1c0.1,0.1,0.3,0.3,0.5,0.3l7.8,1.9c0.1,0,0.2,0,0.2,0c0.5,0,0.9-0.3,1-0.8
		c0.1-0.5-0.2-1.1-0.7-1.2c0,0-4.6-1.1-6.7-1.7l0,0c0,0,0,0,0,0l0,0c0,0,0,0,0,0l0,0c0,0,0,0,0,0l0,0c0,0,0,0,0,0l-1-0.2
		c-0.1,0-0.2,0-0.2,0c-0.2,0-0.3,0-0.5,0.1C63.3,17.8,63,17.7,62.7,17.7L62.7,17.7L62.7,17.7z M58.1,27.5c-0.5,0-0.9,0.3-1,0.8
		c0,0-0.3,1.1-0.6,2.5l0,0c0,0,0,0,0,0l0,0c0,0,0,0,0,0l0,0c0,0,0,0,0,0l0,0c0,0,0,0,0,0l0,0c0,0,0,0,0,0l0,0c0,0,0,0,0,0l0,0
		c0,0,0,0,0,0l0,0c0,0,0,0,0,0l0,0c0,0,0,0,0,0l0,0c0,0,0,0,0,0l0,0c0,0,0,0,0,0l0,0c0,0,0,0,0,0l-1.2,5c-0.1,0.5,0.2,1.1,0.7,1.2
		c0.1,0,0.2,0,0.2,0c0.5,0,0.9-0.3,1-0.8l1.9-7.8c0.1-0.5-0.2-1.1-0.7-1.2C58.3,27.5,58.2,27.5,58.1,27.5L58.1,27.5z M55,40.1
		c-0.5,0-0.9,0.3-1,0.8c0,0-0.4,1.5-0.8,3.2l0,0c0,0,0,0,0,0l0,0c0,0,0,0,0,0l0,0c0,0,0,0,0,0l0,0c0,0,0,0,0,0l0,0c0,0,0,0,0,0
		l-1.1,4.4c-0.1,0.5,0.2,1.1,0.7,1.2c0.1,0,0.2,0,0.2,0c0.5,0,0.9-0.3,1-0.8l1.9-7.8c0.1-0.5-0.2-1.1-0.7-1.2
		C55.2,40.2,55.1,40.1,55,40.1L55,40.1z M51.9,52.8c-0.5,0-0.9,0.3-1,0.8c0,0-0.2,1-0.5,2.2l0,0c0,0,0,0,0,0l0,0c0,0,0,0,0,0l0,0
		c0,0,0,0,0,0l-1.3,5.5c-0.1,0.5,0.2,1.1,0.7,1.2c0.1,0,0.2,0,0.2,0c0.5,0,0.9-0.3,1-0.8l1.9-7.8c0.1-0.5-0.2-1.1-0.7-1.2
		C52.1,52.8,52,52.8,51.9,52.8L51.9,52.8z M48.8,65.4c-0.5,0-0.9,0.3-1,0.8c0,0-0.2,0.7-0.4,1.7l0,0c0,0,0,0,0,0l0,0c0,0,0,0,0,0
		l0,0.1c0,0,0,0,0,0l0,0c0,0,0,0,0,0L46,73.9c-0.1,0.5,0.2,1.1,0.7,1.2c0.1,0,0.2,0,0.2,0c0.5,0,0.9-0.3,1-0.8l1.9-7.8
		c0.1-0.5-0.2-1.1-0.7-1.2C49,65.4,48.9,65.4,48.8,65.4L48.8,65.4z M45.8,78c-0.5,0-0.9,0.3-1,0.8v0c0,0,0,0,0,0v0c0,0,0,0,0,0l0,0
		c0,0,0,0,0,0v0c0,0,0,0,0,0l0,0c0,0,0,0,0,0l0,0c0,0,0,0,0,0v0c0,0,0,0,0,0l0,0c0,0,0,0,0,0l0,0c0,0,0,0,0,0l0,0c0,0,0,0,0,0v0
		c0,0,0,0,0,0l0,0c0,0,0,0,0,0l0,0c0,0,0,0,0,0l0,0c0,0,0,0,0,0l0,0c0,0,0,0,0,0l0,0c0,0,0,0.1,0,0.1l0,0c0,0,0,0,0,0l0,0
		c0,0,0,0.1,0,0.1l0,0c0,0,0,0,0,0l0,0c0,0,0,0,0,0l0,0c0,0,0,0,0,0l0,0c0,0,0,0,0,0l0,0c0,0,0,0,0,0.1l0,0c0,0,0,0,0,0l0,0
		c0,0,0,0,0,0l0,0c0,0,0,0,0,0l0,0c0,0,0,0,0,0l0,0c0,0,0,0,0,0l0,0c0,0,0,0,0,0l0,0c0,0,0,0,0,0l0,0c0,0,0,0,0,0l0,0c0,0,0,0,0,0
		l0,0c0,0,0,0,0,0l0,0c0,0,0,0,0,0l0,0c0,0,0,0,0,0l0,0c0,0,0,0,0,0l0,0c0,0,0,0,0,0l0,0c0,0,0,0,0,0l0,0c0,0,0,0,0,0l0,0
		c0,0,0,0,0,0l0,0c0,0,0,0,0,0l0,0c0,0,0,0,0,0l0,0c0,0,0,0,0,0l0,0c0,0,0,0,0,0l0,0c0,0,0,0,0,0l0,0c0,0,0,0,0,0l0,0c0,0,0,0,0,0
		l0,0c0,0.1,0,0.2-0.1,0.3l0,0c0,0.1-0.1,0.3-0.1,0.4l0,0c0,0,0,0,0,0l0,0c0,0,0,0,0,0l0,0c0,0,0,0,0,0l0,0c0,0,0,0,0,0l0,0
		c0,0.1-0.1,0.3-0.1,0.4l0,0c0,0,0,0,0,0l0,0c0,0,0,0,0,0l0,0c0,0,0,0.1,0,0.1l0,0c0,0,0,0.1,0,0.1l0,0c0,0,0,0,0,0l0,0
		c0,0,0,0,0,0.1l0,0c0,0,0,0,0,0l0,0c0,0,0,0,0,0l0,0c0,0,0,0,0,0l0,0c0,0,0,0,0,0l0,0c0,0,0,0,0,0l0,0c0,0,0,0,0,0l0,0
		c0,0,0,0,0,0.1l0,0c0,0,0,0,0,0.1l0,0c0,0,0,0.1,0,0.1l0,0c-0.1,0.3-0.1,0.5-0.2,0.8l0,0c0,0.2-0.1,0.3-0.1,0.5l0,0
		c0,0.1-0.1,0.3-0.1,0.4l0,0c-0.1,0.3-0.1,0.5-0.2,0.6v0c0,0.2-0.1,0.2-0.1,0.2l0,0l0,0l-0.5,2.2c-0.1,0.5,0.2,1.1,0.7,1.2
		c0.1,0,0.2,0,0.2,0c0.5,0,0.9-0.3,1-0.8l0.5-2.2l1.4-5.5c0.1-0.5-0.2-1.1-0.7-1.2C45.9,78,45.8,78,45.8,78L45.8,78z M42.7,90.7
		c-0.4,0-0.9,0.3-1,0.8l-1.4,5.8v0l0,0c0,0,0,0,0,0l0,0c0,0,0,0,0,0l0,0c0,0,0,0,0,0l0,0c0,0,0,0,0,0l0,0c0,0,0,0,0,0l0,0
		c0,0,0,0,0,0l0,0c0,0,0,0,0,0l0,0c0,0,0,0,0,0l0,0c0,0,0,0,0,0l0,0c0,0,0,0,0,0l0,0c0,0,0,0,0,0l0,0c0,0,0,0,0,0l0,0c0,0,0,0,0,0
		l0,0c0,0,0,0,0,0l0,0c0,0,0,0,0,0l0,0c0,0,0,0,0,0v0c0,0,0,0,0,0v0c0,0,0,0,0,0l0,0c0,0,0,0,0,0l0,0l0,0l-0.4,1.8
		c-0.1,0.5,0.2,1.1,0.7,1.2c0.1,0,0.2,0,0.2,0c0.5,0,0.9-0.3,1-0.8l0.4-1.8l1.5-6c0.1-0.5-0.2-1.1-0.7-1.2
		C42.8,90.7,42.7,90.7,42.7,90.7L42.7,90.7z M39.6,103.3c-0.4,0-0.9,0.3-1,0.8l-1.9,7.8c-0.1,0.5,0.2,1.1,0.7,1.2c0.1,0,0.2,0,0.2,0
		c0.5,0,0.9-0.3,1-0.8l1.9-7.8c0.1-0.5-0.2-1.1-0.7-1.2C39.7,103.3,39.7,103.3,39.6,103.3L39.6,103.3z M36.5,115.9
		c-0.5,0-0.9,0.3-1,0.8c0,0-0.2,0.7-0.2,0.7v0c0,0.1,0,0.1,0,0.2c-0.2,0.8-0.1,1.5,0.2,2.2c0.2,0.5,0.6,1,1,1.4c0,0,0,0,0,0
		c0,0,0,0,0,0c0.3,0.3,0.7,0.5,1.1,0.7c0,0,0.1,0,0.1,0c0.1,0,0.2,0.1,0.3,0.1l1.2,0.3c0.1,0,0.2,0,0.2,0c0.5,0,0.9-0.3,1-0.8
		c0.1-0.5-0.2-1.1-0.7-1.2l-1.2-0.3c-0.5-0.1-0.9-0.4-1.1-0.8c-0.3-0.4-0.3-0.9-0.2-1.4l0.2-0.7c0.1-0.5-0.2-1.1-0.7-1.2
		C36.6,115.9,36.6,115.9,36.5,115.9L36.5,115.9z M44.4,121.5c-0.5,0-0.9,0.3-1,0.8c-0.1,0.5,0.2,1.1,0.7,1.2l4,1c0,0,0,0,0,0l0,0
		c0,0,0,0,0,0l0,0c0,0,0,0,0,0l0,0c0,0,0,0,0,0l0,0c0,0,0,0,0,0l0,0c1.9,0.5,3.7,0.9,3.7,0.9c0.1,0,0.2,0,0.2,0c0.5,0,0.9-0.3,1-0.8
		c0.1-0.5-0.2-1.1-0.7-1.2l-7.8-1.9C44.6,121.5,44.5,121.5,44.4,121.5L44.4,121.5z M57.1,124.6c-0.5,0-0.9,0.3-1,0.8
		c-0.1,0.5,0.2,1.1,0.7,1.2l3.7,0.9c0,0,0,0,0,0l0,0c0,0,0,0,0,0l0,0c0,0,0,0,0,0l0,0c0,0,0.1,0,0.1,0l0,0c1.9,0.5,3.9,1,3.9,1
		c0.1,0,0.2,0,0.2,0c0.5,0,0.9-0.3,1-0.8c0.1-0.5-0.2-1.1-0.7-1.2l-7.8-1.9C57.2,124.6,57.1,124.6,57.1,124.6L57.1,124.6z
		 M69.7,127.7c-0.5,0-0.9,0.3-1,0.8c-0.1,0.5,0.2,1.1,0.7,1.2l3.3,0.8c0,0,0,0,0,0l0.1,0c0,0,0,0,0,0l0,0c0,0,0,0,0,0l0,0
		c0,0,0,0,0,0l0,0c0,0,0,0,0,0l0,0c0,0,0,0,0,0l0,0c2.1,0.5,4.3,1.1,4.3,1.1c0.1,0,0.2,0,0.2,0c0.5,0,0.9-0.3,1-0.8
		c0.1-0.5-0.2-1.1-0.7-1.2l-7.8-1.9C69.8,127.7,69.8,127.7,69.7,127.7L69.7,127.7z M82.3,130.8c-0.5,0-0.9,0.3-1,0.8
		c-0.1,0.5,0.2,1.1,0.7,1.2l3,0.7c0,0,0,0,0,0l0.1,0c0,0,0,0,0,0l0,0c0,0,0,0,0,0l0,0c0,0,0,0,0,0l0,0c0,0,0,0,0,0l0,0c0,0,0,0,0,0
		l0,0c0,0,0,0,0,0l0,0c0,0,0,0,0,0l0,0c0,0,0,0,0,0l0,0c0,0,0,0,0,0l0,0c0,0,0,0,0,0l0,0c2.2,0.5,4.6,1.1,4.6,1.1c0.1,0,0.2,0,0.2,0
		c0.5,0,0.9-0.3,1-0.8c0.1-0.5-0.2-1.1-0.7-1.2l-7.8-1.9C82.5,130.8,82.4,130.8,82.3,130.8L82.3,130.8z M94.9,133.9
		c-0.5,0-0.9,0.3-1,0.8c-0.1,0.5,0.2,1.1,0.7,1.2l7.8,1.9c0.1,0,0.2,0,0.2,0c0.5,0,0.9-0.3,1-0.8c0.1-0.5-0.2-1.1-0.7-1.2l-7.8-1.9
		C95.1,133.9,95,133.9,94.9,133.9L94.9,133.9z M107.6,137c-0.5,0-0.9,0.3-1,0.8c-0.1,0.5,0.2,1.1,0.7,1.2l3.7,0.9
		c0.3,0.1,0.6,0.1,0.9,0.1c0,0,0,0,0,0c0,0,0,0,0,0c0,0,0,0,0,0c0,0,0,0,0,0c0,0,0,0,0,0c0,0,0,0,0,0c0,0,0,0,0,0c0,0,0,0,0,0
		c0,0,0,0,0,0c0,0,0,0,0,0c0,0,0,0,0,0c0,0,0,0,0,0c0,0,0,0,0,0c0,0,0,0,0,0c0,0,0,0,0,0c0,0,0,0,0,0c0,0,0,0,0,0c0,0,0,0,0,0
		c0,0,0,0,0,0c0,0,0,0,0,0c0,0,0,0,0,0c0,0,0,0,0,0c0,0,0,0,0,0c0,0,0,0,0,0c0,0,0,0,0,0c0,0,0,0,0,0c0,0,0,0,0,0c0,0,0,0,0,0
		c0,0,0,0,0,0c0,0,0,0,0,0c0,0,0,0,0,0c0,0,0,0,0,0c0,0,0,0,0,0c0,0,0,0,0,0c0,0,0,0,0,0c0,0,0,0,0,0c0,0,0,0,0,0c0,0,0,0,0,0
		c0,0,0,0,0,0c0,0,0,0,0,0c0,0,0,0,0,0c0,0,0,0,0,0c0,0,0,0,0,0c0,0,0,0,0,0c0,0,0,0,0,0c0,0,0,0,0,0c0,0,0,0,0,0c0,0,0,0,0,0
		c0,0,0,0,0,0c0,0,0,0,0,0c0,0,0,0,0,0c0,0,0,0,0,0c0,0,0,0,0,0c0,0,0,0,0,0c0,0,0,0,0,0c0,0,0,0,0,0c0,0,0,0,0,0c0,0,0,0,0,0
		c0,0,0,0,0,0c0,0,0,0,0,0c0,0,0,0,0,0c0,0,0,0,0,0c0,0,0,0,0,0c0,0,0,0,0,0c0,0,0,0,0,0c0,0,0,0,0,0c0,0,0,0,0,0c0,0,0,0,0,0
		c0,0,0,0,0,0c0,0,0,0,0,0c0,0,0,0,0,0c0,0,0,0,0,0c0,0,0,0,0,0c0,0,0,0,0,0c0,0,0,0,0,0c0,0,0,0,0,0c0,0,0,0,0,0c0,0,0,0,0,0
		c0,0,0,0,0,0c0,0,0,0,0,0c0,0,0,0,0,0c0,0,0,0,0,0c0,0,0,0,0,0c0,0,0,0,0,0c0,0,0,0,0,0c0,0,0,0,0,0c0,0,0,0,0,0c0,0,0,0,0,0
		c0,0,0,0,0,0c0,0,0,0,0,0c0,0,0,0,0,0c0,0,0,0,0,0c0,0,0,0,0,0c0,0,0,0,0,0c0,0,0,0,0,0c0,0,0,0,0,0c0,0,0,0,0,0c0,0,0,0,0,0
		c0,0,0,0,0,0c0,0,0,0,0,0c0,0,0,0,0,0c0,0,0,0,0,0c0,0,0,0,0,0c0,0,0,0,0,0c0,0,0,0,0,0c0,0,0,0,0,0c0,0,0,0,0,0c0,0,0,0,0,0
		c0,0,0,0,0,0c0,0,0,0,0,0c0,0,0,0,0,0c0,0,0,0,0,0c0,0,0,0,0,0c0,0,0,0,0,0c0,0,0,0,0,0c0,0,0,0,0,0c0,0,0,0,0,0c0,0,0,0,0,0
		c0,0,0,0,0,0c0,0,0,0,0,0c0,0,0,0,0,0c0,0,0,0,0,0c0,0,0,0,0,0c0,0,0,0,0,0c0,0,0,0,0,0c0,0,0,0,0,0c0,0,0,0,0,0c0,0,0,0,0,0
		c0,0,0,0,0,0c0,0,0,0,0,0s0,0,0,0c0,0,0,0,0,0c0,0,0,0,0,0c0,0,0,0,0,0c0,0,0,0,0,0c0,0,0,0,0,0c0,0,0,0,0,0c0,0,0,0,0,0
		c0,0,0,0,0,0c0,0,0,0,0,0c0,0,0,0,0,0c0,0,0,0,0,0c0,0,0,0,0,0s0,0,0,0c0,0,0,0,0,0c0,0,0,0,0,0c0,0,0,0,0,0c0,0,0,0,0,0
		c0,0,0,0,0,0c0,0,0,0,0,0c0,0,0,0,0,0c0,0,0,0,0,0s0,0,0,0c0,0,0,0,0,0c0,0,0,0,0,0c0,0,0,0,0,0c0,0,0,0,0,0c0,0,0,0,0,0
		c0,0,0,0,0,0c0,0,0,0,0,0c0,0,0,0,0,0c0,0,0,0,0,0c0,0,0,0,0,0c0,0,0,0,0,0c0,0,0,0,0,0c0,0,0,0,0,0c0,0,0,0,0,0c0,0,0,0,0,0
		c0,0,0,0,0,0c0,0,0,0,0,0c0,0,0,0,0,0c0,0,0,0,0,0c0,0,0,0,0,0c0,0,0,0,0,0c0,0,0,0,0,0c0,0,0,0,0,0c0,0,0,0,0,0c0,0,0,0,0,0
		c0,0,0,0,0,0c0,0,0,0,0,0s0,0,0,0c0,0,0,0,0,0c0,0,0,0,0,0c0,0,0,0,0,0c0,0,0,0,0,0c0,0,0,0,0,0c0,0,0,0,0,0c0,0,0,0,0,0
		c0,0,0,0,0,0c0,0,0,0,0,0c0,0,0,0,0,0c0,0,0,0,0,0c0,0,0,0,0,0c0,0,0,0,0,0c0,0,0,0,0,0c0,0,0,0,0,0c0,0,0,0,0,0c0,0,0,0,0,0
		s0,0,0,0c0,0,0,0,0,0c0,0,0,0,0,0c0,0,0,0,0,0c0,0,0,0,0,0c0,0,0,0,0,0c0,0,0,0,0,0c0,0,0,0,0,0c0,0,0,0,0,0c0,0,0,0,0,0
		c0,0,0,0,0,0s0,0,0,0c0,0,0,0,0,0c0,0,0,0,0,0c0,0,0,0,0,0c0,0,0,0,0,0c0,0,0,0,0,0c0,0,0,0,0,0c0,0,0,0,0,0c0,0,0,0,0,0
		c0,0,0,0,0,0c0,0,0,0,0,0c0,0,0,0,0,0c0,0,0,0,0,0c0,0,0,0,0,0c0,0,0,0,0,0c0,0,0,0,0,0c0,0,0,0,0,0c0,0,0,0,0,0c0,0,0,0,0,0
		c0,0,0,0,0,0c0,0,0,0,0,0c0,0,0,0,0,0c0,0,0,0,0,0c0,0,0,0,0,0c0,0,0,0,0,0c0,0,0,0,0,0c0,0,0,0,0,0c0,0,0,0,0,0c0,0,0,0,0,0
		c0,0,0,0,0,0c0,0,0,0,0,0c0,0,0,0,0,0c0,0,0,0,0,0c0,0,0,0,0,0c0,0,0,0,0,0c0,0,0,0,0,0c0,0,0,0,0,0c0,0,0,0,0,0c0,0,0,0,0,0
		c0,0,0,0,0,0c0,0,0,0,0,0c0,0,0,0,0,0c0,0,0,0,0,0c0,0,0,0,0,0c0,0,0,0,0,0c0,0,0,0,0,0c0,0,0,0,0,0c0,0,0,0,0,0c0,0,0,0,0,0
		c0,0,0,0,0,0c0,0,0,0,0,0c0,0,0,0,0,0c0,0,0,0,0,0c0,0,0,0,0,0c0,0,0,0,0,0c0,0,0,0,0,0c0,0,0,0,0,0c0,0,0,0,0,0c0,0,0,0,0,0
		c0,0,0,0,0,0c0,0,0,0,0,0c0,0,0,0,0,0c0,0,0,0,0,0c0,0,0,0,0,0c0,0,0,0,0,0c0,0,0,0,0,0c0,0,0,0,0,0c0,0,0,0,0,0c0,0,0,0,0,0
		c0,0,0,0,0,0c0,0,0,0,0,0c0,0,0,0,0,0c0,0,0,0,0,0c0,0,0,0,0,0c0,0,0,0,0,0c0,0,0,0,0,0c0,0,0,0,0,0c0,0,0,0,0,0c0,0,0,0,0,0
		c0,0,0,0,0,0c0,0,0,0,0,0c0,0,0,0,0,0c0,0,0,0,0,0c0,0,0,0,0,0c0,0,0,0,0,0c0,0,0,0,0,0c0,0,0,0,0,0c0,0,0,0,0,0c0,0,0,0,0,0
		c0,0,0,0,0,0c0,0,0,0,0,0c0,0,0,0,0,0c0,0,0,0,0,0c0,0,0,0,0,0c0,0,0,0,0,0c0,0,0,0,0,0c0,0,0,0,0,0c0,0,0,0,0,0c0,0,0,0,0,0
		c0,0,0,0,0,0c0,0,0,0,0,0c0,0,0,0,0,0c0,0,0,0,0,0c0,0,0,0,0,0c0,0,0,0,0,0c0,0,0,0,0,0c0,0,0,0,0,0c0,0,0,0,0,0c0,0,0,0,0,0
		c0,0,0,0,0,0c0,0,0,0,0,0c0,0,0,0,0,0c0,0,0,0,0,0c0,0,0,0,0,0c0,0,0,0,0,0c0,0,0,0,0,0c0,0,0,0,0,0c0,0,0,0,0,0c0,0,0,0,0,0
		c0,0,0,0,0,0c0,0,0,0,0,0c0,0,0,0,0,0c0,0,0,0,0,0c0,0,0,0,0,0c0,0,0,0,0,0c0,0,0,0,0,0c0,0,0,0,0,0c0,0,0,0,0,0c0,0,0,0,0,0
		c0,0,0,0,0,0c0,0,0,0,0,0c0,0,0,0,0,0c0,0,0,0,0,0c0,0,0,0,0,0c0,0,0,0,0,0c0,0,0,0,0,0c0,0,0,0,0,0c0,0,0,0,0,0c0,0,0,0,0,0
		c0,0,0,0,0,0c0,0,0,0,0,0c0,0,0,0,0,0c0,0,0,0,0,0c0,0,0,0,0,0c0,0,0,0,0,0c0,0,0,0,0,0c0,0,0,0,0,0c0,0,0,0,0,0c0,0,0,0,0,0
		c0,0,0,0,0,0c0,0,0,0,0,0c0,0,0,0,0,0c0,0,0,0,0,0c0,0,0,0,0,0c0,0,0,0,0,0c0,0,0,0,0,0c0,0,0,0,0,0c0,0,0,0,0,0c0,0,0,0,0,0
		c0,0,0,0,0,0c0,0,0,0,0,0c0,0,0,0,0,0c0,0,0,0,0,0c0,0,0,0,0,0c0,0,0,0,0,0c0,0,0,0,0,0c0,0,0,0,0,0c0,0,0,0,0,0c0,0,0,0,0,0
		c0,0,0,0,0,0c0,0,0,0,0,0c0,0,0,0,0,0c0,0,0,0,0,0c0,0,0,0,0,0c0,0,0,0,0,0c0,0,0,0,0,0c0,0,0,0,0,0c0,0,0,0,0,0c0,0,0,0,0,0
		c0,0,0,0,0,0c0,0,0,0,0,0c0,0,0,0,0,0c0,0,0,0,0,0c0,0,0,0,0,0c0,0,0,0,0,0c0,0,0,0,0,0c0,0,0,0,0,0c0,0,0,0,0,0c0,0,0,0,0,0
		c0,0,0,0,0,0c0,0,0,0,0,0c0,0,0,0,0,0c0,0,0,0,0,0c0,0,0,0,0,0c0,0,0,0,0,0c0,0,0,0,0,0c0,0,0,0,0,0c0,0,0,0,0,0c0,0,0,0,0,0
		c0,0,0,0,0,0c0,0,0,0,0,0c0,0,0,0,0,0c0,0,0,0,0,0c0,0,0,0,0,0c0,0,0,0,0,0c0,0,0,0,0,0c0,0,0,0,0,0c0,0,0,0,0,0c0,0,0,0,0,0
		c0,0,0,0,0,0c0,0,0,0,0,0c0,0,0,0,0,0c0,0,0,0,0,0c0,0,0,0,0,0c0,0,0,0,0,0c0,0,0,0,0,0s0,0,0,0c0,0,0,0,0,0c0,0,0,0,0,0
		c0,0,0,0,0,0c0,0,0,0,0,0c0,0,0,0,0,0c0,0,0,0,0,0c0,0,0,0,0,0c0,0,0,0,0,0c0,0,0,0,0,0c0,0,0,0,0,0c0,0,0,0,0,0c0,0,0,0,0,0
		c0,0,0,0,0,0c0,0,0,0,0,0c0,0,0,0,0,0c0,0,0,0,0,0c0,0,0,0,0,0c0,0,0,0,0,0c0,0,0,0,0,0c0,0,0,0,0,0c0,0,0,0,0,0c0,0,0,0,0,0
		c0,0,0,0,0,0c0,0,0,0,0,0c0,0,0,0,0,0c0,0,0,0,0,0c0,0,0,0,0,0s0,0,0,0c0,0,0,0,0,0c0,0,0,0,0,0c0,0,0,0,0,0c0,0,0,0,0,0
		c0,0,0,0,0,0c0,0,0,0,0,0c0,0,0,0,0,0c0,0,0,0,0,0c0,0,0,0,0,0c0,0,0,0,0,0c0,0,0,0,0,0c0,0,0,0,0,0c0,0,0,0,0,0c0,0,0,0,0,0
		c0,0,0,0,0,0c0,0,0,0,0,0c0,0,0,0,0,0c0,0,0,0,0,0c0,0,0,0,0,0c0,0,0,0,0,0c0,0,0,0,0,0c0,0,0,0,0,0c0,0,0,0,0,0c0,0,0,0,0,0
		c0,0,0,0,0,0c0,0,0,0,0,0c0,0,0,0,0,0c0,0,0,0,0,0c0,0,0,0,0,0c0,0,0,0,0,0c0,0,0,0,0,0c0,0,0,0,0,0c0,0,0,0,0,0c0,0,0,0,0,0
		c0,0,0,0,0,0c0,0,0,0,0,0c0,0,0,0,0,0c0,0,0,0,0,0c0,0,0,0,0,0c0,0,0,0,0,0c0,0,0,0,0,0c0,0,0,0,0,0c0,0,0,0,0,0c0,0,0,0,0,0
		c0,0,0,0,0,0c0,0,0,0,0,0c0,0,0,0,0,0c0,0,0,0,0,0c0,0,0,0,0,0c0,0,0,0,0,0c0,0,0,0,0,0c0,0,0,0,0,0c0,0,0,0,0,0c0,0,0,0,0,0
		c0,0,0,0,0,0c0,0,0,0,0,0c0,0,0,0,0,0c0,0,0,0,0,0c0,0,0,0,0,0c0,0,0,0,0,0c0,0,0,0,0,0c0,0,0,0,0,0c0,0,0,0,0,0c0,0,0,0,0,0
		c0,0,0,0,0,0c0,0,0,0,0,0c0,0,0,0,0,0c0,0,0,0,0,0c0,0,0,0,0,0c0,0,0,0,0,0c0,0,0,0,0,0c0,0,0,0,0,0c0,0,0,0,0,0c0,0,0,0,0,0
		c0,0,0,0,0,0c0,0,0,0,0,0c0,0,0,0,0,0c0,0,0,0,0,0c0,0,0,0,0,0c0,0,0,0,0,0c0,0,0,0,0,0c0,0,0,0,0,0c0,0,0,0,0,0c0,0,0,0,0,0
		c0,0,0,0,0,0c0,0,0,0,0,0c0,0,0,0,0,0c0,0,0,0,0,0c0,0,0,0,0,0c0,0,0,0,0,0c0,0,0,0,0,0c0,0,0,0,0,0c0,0,0,0,0,0c0,0,0,0,0,0
		c0,0,0,0,0,0l0,0c0,0,0,0,0,0c0,0,0,0,0,0c0,0,0,0,0,0c0,0,0,0,0,0c0.4-0.2,0.8-0.5,1.1-0.9c0.4-0.4,0.3-1-0.1-1.4
		c-0.2-0.2-0.4-0.2-0.7-0.2c-0.3,0-0.6,0.1-0.8,0.3c-0.3,0.4-0.8,0.6-1.4,0.6c-0.1,0-0.3,0-0.4-0.1l-3.7-0.9
		C107.7,137,107.7,137,107.6,137L107.6,137z M117.3,125c-0.5,0-0.9,0.3-1,0.8l-1.9,7.8c-0.1,0.5,0.2,1.1,0.7,1.2c0.1,0,0.2,0,0.2,0
		c0.4,0,0.9-0.3,1-0.8l1.9-7.8c0.1-0.5-0.2-1.1-0.7-1.2C117.5,125,117.4,125,117.3,125L117.3,125z M120.4,112.3
		c-0.5,0-0.9,0.3-1,0.8l-0.9,3.5l-1,4.3c-0.1,0.5,0.2,1.1,0.7,1.2c0.1,0,0.2,0,0.2,0c0.5,0,0.9-0.3,1-0.8l1-4.3c0,0,0,0,0,0l0,0
		c0,0,0,0,0,0l0,0c0,0,0,0,0,0l0,0c0,0,0,0,0,0l0,0c0,0,0,0,0,0l0.8-3.4c0.1-0.5-0.2-1.1-0.7-1.2
		C120.6,112.3,120.5,112.3,120.4,112.3L120.4,112.3z M123.5,99.7c-0.5,0-0.9,0.3-1,0.8l-0.7,3l-1.2,4.7c-0.1,0.5,0.2,1.1,0.7,1.2
		c0.1,0,0.2,0,0.2,0c0.5,0,0.9-0.3,1-0.8l1.2-4.7l0.7-3c0.1-0.5-0.2-1.1-0.7-1.2C123.7,99.7,123.6,99.7,123.5,99.7L123.5,99.7z
		 M126.6,87.1c-0.5,0-0.9,0.3-1,0.8l-1.9,7.8c-0.1,0.5,0.2,1.1,0.7,1.2c0.1,0,0.2,0,0.2,0c0.4,0,0.9-0.3,1-0.8l1.9-7.8
		c0.1-0.5-0.2-1.1-0.7-1.2C126.8,87.1,126.7,87.1,126.6,87.1L126.6,87.1z M129.7,74.4c-0.5,0-0.9,0.3-1,0.8l-1.9,7.8
		c-0.1,0.5,0.2,1.1,0.7,1.2c0.1,0,0.2,0,0.2,0c0.5,0,0.9-0.3,1-0.8l1.9-7.8c0.1-0.5-0.2-1.1-0.7-1.2
		C129.9,74.5,129.8,74.4,129.7,74.4L129.7,74.4z M132.8,61.8c-0.5,0-0.9,0.3-1,0.8l-1.9,7.8c-0.1,0.5,0.2,1.1,0.7,1.2
		c0.1,0,0.2,0,0.2,0c0.4,0,0.9-0.3,1-0.8l1.9-7.8c0.1-0.5-0.2-1.1-0.7-1.2C132.9,61.8,132.9,61.8,132.8,61.8L132.8,61.8z
		 M135.9,49.2c-0.5,0-0.9,0.3-1,0.8l-1.9,7.8c-0.1,0.5,0.2,1.1,0.7,1.2c0.1,0,0.2,0,0.2,0c0.4,0,0.9-0.3,1-0.8l1.9-7.8
		c0.1-0.5-0.2-1.1-0.7-1.2C136,49.2,136,49.2,135.9,49.2L135.9,49.2z M138.2,37.2c-0.1,0-0.3,0-0.4,0.1c-0.5,0.2-0.7,0.8-0.5,1.3
		c0.1,0.3,0.2,0.7,0.1,1.2l-1.3,5.4c-0.1,0.5,0.2,1.1,0.7,1.2c0.1,0,0.2,0,0.2,0c0.4,0,0.9-0.3,1-0.8l1.2-5c0,0,0,0,0,0l0,0
		c0,0,0,0,0,0l0,0c0,0,0,0,0,0l0,0c0,0,0,0,0,0l0,0c0,0,0,0,0,0l0,0c0,0,0,0,0,0l0,0c0,0,0,0,0,0l0,0c0,0,0,0,0,0l0,0c0,0,0,0,0,0
		l0,0c0,0,0,0,0,0l0,0c0,0,0,0,0,0l0,0c0,0,0,0,0,0l0,0c0,0,0,0,0,0l0,0c0,0,0,0,0,0l0,0c0-0.1,0-0.2,0-0.2v0l0,0l0,0c0,0,0,0,0,0
		c0,0,0,0,0,0c0,0,0,0,0,0c0,0,0,0,0,0c0,0,0,0,0,0c0,0,0,0,0,0c0,0,0,0,0,0c0,0,0,0,0,0c0,0,0,0,0,0c0,0,0,0,0,0c0,0,0,0,0,0
		c0,0,0,0,0,0c0,0,0,0,0,0c0,0,0,0,0,0c0,0,0,0,0,0v0c0.2-0.8,0.1-1.6-0.2-2.4C139,37.4,138.6,37.2,138.2,37.2L138.2,37.2z
		 M127.1,33.3c-0.4,0-0.9,0.3-1,0.8c-0.1,0.5,0.2,1.1,0.7,1.2l7.8,1.9c0.1,0,0.2,0,0.2,0c0.5,0,0.9-0.3,1-0.8
		c0.1-0.5-0.2-1.1-0.7-1.2c0,0-2.9-0.7-5.1-1.3l0,0c0,0-0.1,0-0.1,0l0,0c0,0,0,0,0,0l0,0c0,0,0,0,0,0l0,0c0,0,0,0,0,0l-2.5-0.6
		C127.2,33.3,127.2,33.3,127.1,33.3L127.1,33.3z M114.4,30.2c-0.5,0-0.9,0.3-1,0.8c-0.1,0.5,0.2,1.1,0.7,1.2l7.8,1.9
		c0.1,0,0.2,0,0.2,0c0.5,0,0.9-0.3,1-0.8c0.1-0.5-0.2-1.1-0.7-1.2c0,0-2.7-0.7-4.9-1.2l0,0c0,0,0,0,0,0l0,0c0,0,0,0,0,0l0,0
		c0,0,0,0,0,0l0,0c0,0,0,0,0,0l0,0c0,0,0,0,0,0l0,0c0,0,0,0,0,0l0,0c0,0,0,0,0,0l0,0c0,0,0,0,0,0l0,0c0,0,0,0,0,0l-2.7-0.7
		C114.6,30.2,114.5,30.2,114.4,30.2L114.4,30.2z M101.8,27.2c-0.5,0-0.9,0.3-1,0.8c-0.1,0.5,0.2,1.1,0.7,1.2l7.8,1.9
		c0.1,0,0.2,0,0.2,0c0.5,0,0.9-0.3,1-0.8c0.1-0.5-0.2-1.1-0.7-1.2c0,0-5.7-1.4-7.4-1.8l0,0c0,0,0,0,0,0l0,0c0,0,0,0,0,0l0,0
		c0,0,0,0,0,0l0,0c0,0,0,0,0,0l0,0c0,0,0,0,0,0l0,0c0,0,0,0,0,0l0,0c0,0,0,0,0,0l0,0c0,0,0,0,0,0l0,0c0,0,0,0,0,0l0,0c0,0,0,0,0,0
		l0,0c0,0,0,0,0,0l0,0c0,0,0,0,0,0l0,0c0,0,0,0,0,0l-0.3-0.1C102,27.2,101.9,27.2,101.8,27.2L101.8,27.2z M89.2,24.1
		c-0.5,0-0.9,0.3-1,0.8c-0.1,0.5,0.2,1.1,0.7,1.2l7.8,1.9c0.1,0,0.2,0,0.2,0c0.5,0,0.9-0.3,1-0.8c0.1-0.5-0.2-1.1-0.7-1.2
		c0,0-5.1-1.3-7-1.7l0,0c0,0,0,0,0,0l0,0c0,0,0,0,0,0l0,0c0,0,0,0,0,0l0,0c0,0,0,0,0,0l0,0c0,0,0,0,0,0l0,0c0,0,0,0,0,0l0,0
		c0,0,0,0,0,0l0,0c0,0,0,0,0,0l0,0c0,0,0,0,0,0l0,0c0,0,0,0,0,0l0,0c0,0,0,0,0,0l0,0c0,0,0,0,0,0l0,0c0,0,0,0,0,0l0,0c0,0,0,0,0,0
		l0,0c0,0,0,0,0,0l-0.1,0l0,0l-0.5-0.1C89.4,24.1,89.3,24.1,89.2,24.1L89.2,24.1z M76.6,21c-0.5,0-0.9,0.3-1,0.8
		c-0.1,0.5,0.2,1.1,0.7,1.2l7.8,1.9c0.1,0,0.2,0,0.2,0c0.5,0,0.9-0.3,1-0.8c0.1-0.5-0.2-1.1-0.7-1.2c0,0-4.3-1.1-6.5-1.6l0,0
		c0,0,0,0,0,0l0,0c0,0,0,0,0,0l-0.1,0l0,0l-0.1,0c0,0,0,0,0,0L76.8,21C76.7,21,76.6,21,76.6,21L76.6,21z"/>
</g>
<path class="st4" d="M7,18.3c-2.1,0.4-3.4,2.4-3,4.5l12.5,64.9l2.6,13.3l3.9,20.4c0.4,2.1,2.4,3.4,4.5,3l74.2-14.3
	c2.1-0.4,3.4-2.4,3-4.5l-3.9-20.4l-2.6-13.3L85.8,7c-0.4-2.1-2.4-3.4-4.5-3L7,18.3z"/>
<g>
	<path class="st51" d="M113.3,108.9l-4.5,4.5c-1.2,1.2-3.2,1.2-4.4,0L80.3,89.2c-1.2-1.2-1.2-3.2,0-4.4l4.5-4.5
		c1.2-1.2,3.2-1.2,4.4,0l24.1,24.1C114.5,105.7,114.5,107.7,113.3,108.9z"/>
	<circle class="st71" cx="58.3" cy="58.3" r="28.5"/>
	<polygon class="st51" points="74.7,47.7 68.9,41.9 58.2,52.6 47.5,41.9 41.8,47.7 52.5,58.4 41.8,69.1 47.5,74.8 58.2,64.1
		68.9,74.8 74.7,69.1 63.9,58.4 	"/>
</g>
<line class="st72" x1="78.5" y1="78.4" x2="90.2" y2="90.1"/>
</svg>
